<svg width="281" height="280" viewBox="0 0 581 580" fill="none" xmlns="http://www.w3.org/2000/svg">
<path d="M328.221 577.356C305.348 566.175 296.233 539.594 293.009 514.835C292.465 510.724 291.324 506.449 292.624 502.503C293.924 498.557 297.931 495.337 301.779 496.447C304.976 497.365 306.847 500.681 308.983 503.298C311.824 506.829 315.579 509.452 319.81 510.861C322.569 511.779 325.846 512.067 328.115 510.204C331.22 507.641 330.769 502.681 330.132 498.598C328.832 491.026 327.558 483.453 326.311 475.881C325.412 471.84 325.148 467.676 325.528 463.549C326.112 459.439 328.248 455.328 331.83 453.629C335.413 451.93 340.441 453.314 341.887 457.178C342.314 458.839 342.633 460.528 342.843 462.234C343.227 463.919 344.302 465.659 345.934 465.865C347.566 466.07 348.986 464.632 349.981 463.22C353.377 458.384 355.288 452.588 357.013 446.847C358.737 441.106 360.356 435.255 363.328 430.103C366.3 424.951 370.838 420.512 376.45 419.142C382.062 417.772 388.696 420.375 391.045 425.869C393.393 431.364 391.124 437.79 388.391 443.079C384.24 450.91 379.016 458.082 372.881 464.371C371.657 465.378 370.775 466.76 370.36 468.317C369.949 471.195 372.894 473.469 375.667 473.908C378.772 474.401 381.93 473.524 385.074 473.36C388.219 473.195 391.788 474.017 393.459 476.826C395.755 480.717 393.088 485.691 390.235 489.158C384.506 496.064 377.671 501.904 370.028 506.422C367.295 508.025 364.39 509.532 362.386 512.053C360.383 514.574 359.573 518.493 361.457 521.124C363.341 523.755 367.149 524.042 370.095 522.919C373.04 521.795 375.495 519.617 378.215 517.986C383.309 514.917 390.395 514.067 394.68 518.315C396.017 519.8 397.001 521.586 397.556 523.53C398.111 525.475 398.221 527.527 397.878 529.523C397.172 533.5 395.696 537.289 393.539 540.663C386.668 552.86 376.788 562.959 364.907 569.929C353.032 576.643 341.542 579.918 328.235 577.369" fill="#F5F5F5"/>
<path d="M331.844 560.831C333.603 546.73 336.146 532.745 339.46 518.945L342.007 508.08C342.843 504.503 343.679 500.968 344.661 497.57C346.644 491.049 348.974 484.645 351.639 478.388C354.147 472.387 356.734 466.769 359.189 461.549C361.643 456.328 364.045 451.505 366.407 447.216C370.093 440.414 374.299 433.926 378.984 427.815C380.643 425.65 381.983 424.019 382.898 422.923C383.336 422.403 383.695 421.992 383.947 421.676C384.199 421.361 384.318 421.265 384.331 421.279C384.235 421.437 384.129 421.588 384.013 421.731L383.005 423.019C382.129 424.143 380.829 425.76 379.21 427.993C374.627 434.165 370.498 440.682 366.858 447.491C364.536 451.793 362.174 456.616 359.733 461.836C357.292 467.057 354.744 472.674 352.263 478.676C349.621 484.933 347.318 491.337 345.364 497.858C344.342 501.242 343.519 504.709 342.71 508.326L340.163 519.205C336.857 532.977 334.301 546.929 332.507 560.996" fill="#E0E0E0"/>
<path d="M344.886 497.515C344.598 496.982 344.371 496.417 344.209 495.83C343.811 494.747 343.294 493.09 342.684 491.158C341.463 487.184 339.95 481.635 338.305 475.524C336.66 469.413 335.081 463.891 333.794 459.959C333.157 457.986 332.627 456.383 332.255 455.3C332.032 454.737 331.859 454.155 331.738 453.56C332.058 454.071 332.32 454.618 332.52 455.191C332.985 456.246 333.582 457.821 334.285 459.767C335.705 463.686 337.363 469.18 339.022 475.318C340.68 481.457 342.073 486.828 343.188 490.993C343.705 492.884 344.13 494.473 344.515 495.748C344.688 496.325 344.813 496.916 344.886 497.515V497.515Z" fill="#E0E0E0"/>
<path d="M394.176 478.799C393.535 479.075 392.868 479.282 392.185 479.415C390.859 479.758 389.041 480.251 386.759 480.936C382.181 482.306 375.932 484.334 369.126 486.938C362.319 489.541 356.256 492.185 351.878 494.213C349.702 495.214 347.964 496.077 346.756 496.666C346.15 497.007 345.515 497.291 344.859 497.515C345.408 497.079 345.999 496.702 346.624 496.392C347.791 495.72 349.503 494.789 351.652 493.652C355.938 491.487 361.988 488.76 368.807 486.143C374.628 483.894 380.558 481.959 386.573 480.347C388.882 479.717 390.766 479.306 392.079 479.045C392.769 478.896 393.471 478.814 394.176 478.799V478.799Z" fill="#E0E0E0"/>
<path d="M332.308 559.776C332.138 559.597 331.987 559.399 331.857 559.187L330.676 557.447C329.654 555.912 328.235 553.679 326.523 550.884C323.073 545.293 318.562 537.415 313.693 528.646C308.824 519.877 304.405 511.971 301.049 506.326L297.068 499.626L296.007 497.803C295.867 497.601 295.755 497.38 295.675 497.146C295.675 497.146 295.848 497.324 296.126 497.721C296.405 498.118 296.843 498.762 297.307 499.475C298.329 500.996 299.748 503.229 301.473 506.038C304.91 511.628 309.434 519.493 314.303 528.262C319.173 537.031 323.591 544.937 326.934 550.596L330.915 557.282C331.339 558.009 331.697 558.653 331.976 559.105C332.118 559.31 332.23 559.537 332.308 559.776V559.776Z" fill="#E0E0E0"/>
<path d="M396.233 525.453C396.046 525.622 395.836 525.76 395.609 525.864L393.765 526.878L386.918 530.564C381.134 533.688 373.2 538.086 364.443 542.895C355.686 547.705 347.712 552.103 341.887 555.09C338.968 556.583 336.58 557.83 334.935 558.557L332.945 559.461C332.726 559.58 332.495 559.672 332.255 559.735C332.445 559.57 332.654 559.432 332.879 559.324L334.736 558.31L341.582 554.61C347.354 551.5 355.288 547.102 364.045 542.279C372.801 537.456 380.789 533.085 386.6 530.098C389.519 528.605 391.907 527.358 393.552 526.631L395.463 525.727C395.704 525.596 395.964 525.503 396.233 525.453V525.453Z" fill="#E0E0E0"/>
<path d="M162.32 283.248C162.32 283.248 146.558 285.509 155.408 321.16C164.257 356.812 171.767 375.2 171.767 375.2C171.767 375.2 172.948 383.27 166.645 383.024C160.343 382.777 147.487 377.543 143.122 384.517C138.611 391.807 142.564 400.576 152.409 409.77C162.254 418.963 183.244 439.913 185.128 441.818C187.012 443.722 188.391 447.641 184.066 448.176C179.741 448.71 149.066 444.997 148.243 460.137C147.42 475.278 179.038 496.214 182.448 498.57C185.857 500.927 186.428 502.763 185.632 504.818C184.836 506.874 174.673 504.613 165.903 503.914C157.132 503.215 146.837 504.024 147.062 512.793C147.288 521.562 163.899 543.759 212.327 560.256L235.267 566.38L252.21 549.144C286.308 509.97 290.036 482.197 286.016 474.469C281.996 466.741 272.748 471.331 265.398 476.428C258.048 481.526 250.352 488.76 248.707 487.39C247.062 486.02 246.637 484.129 248.468 480.333C250.299 476.538 267.667 442.147 259.653 429.432C251.639 416.716 226.802 435.652 222.822 437.392C218.841 439.132 218.125 434.994 218.841 432.419C219.558 429.843 227.651 400.905 231.817 387.819C235.983 374.734 235.187 365.116 227.757 361.115C220.593 357.265 211.982 368.445 206.622 371.898C201.261 375.351 198.422 367.787 198.422 367.787C198.422 367.787 196.087 347.988 186.614 312.501C177.14 277.014 162.028 283.371 162.028 283.371" fill="#EBEBEB"/>
<path d="M235.254 572.272C228.394 546.239 216.944 499.653 206.927 459.658C196.91 419.662 187.808 383.599 181.068 357.484C177.698 344.44 174.965 333.889 173.107 326.559C172.178 322.928 171.449 320.092 170.944 318.146L170.387 315.954C170.268 315.461 170.228 315.2 170.228 315.2C170.228 315.2 170.321 315.433 170.467 315.926C170.613 316.42 170.812 317.173 171.077 318.105C171.621 320.051 172.404 322.859 173.386 326.477C175.376 333.752 178.189 344.289 181.612 357.333C188.471 383.366 197.666 419.553 207.683 459.466C217.7 499.379 229.058 546.006 235.798 572.121" fill="#E0E0E0"/>
<path d="M160.821 392.656C161.351 392.882 161.858 393.162 162.334 393.492C163.276 394.068 164.629 394.944 166.314 396.041C169.618 398.247 174.115 401.412 179.011 404.988L191.509 414.195L195.317 416.936C195.798 417.244 196.243 417.607 196.644 418.018C196.109 417.795 195.598 417.515 195.118 417.182C194.176 416.607 192.823 415.73 191.138 414.62C187.861 412.387 183.403 409.139 178.507 405.577L165.942 396.465L162.121 393.725C161.652 393.418 161.216 393.059 160.821 392.656V392.656Z" fill="#E0E0E0"/>
<path d="M198.568 416.881C198.395 416.771 204.3 406.919 211.743 394.876C219.186 382.832 225.382 373.158 225.555 373.268C225.727 373.378 219.823 383.243 212.366 395.287C204.91 407.331 198.74 416.963 198.568 416.881Z" fill="#E0E0E0"/>
<path d="M211.279 478.922C211.646 478.449 212.069 478.026 212.539 477.662L216.108 474.428C219.12 471.688 223.273 467.906 227.704 463.549C232.136 459.192 236.036 455.122 238.823 452.149C240.149 450.779 241.237 449.559 242.126 448.628C242.528 448.168 242.972 447.751 243.453 447.381C243.159 447.905 242.803 448.388 242.392 448.82C241.675 449.71 240.601 450.971 239.247 452.505C236.594 455.588 232.719 459.74 228.261 464.097C223.803 468.454 219.611 472.208 216.506 474.839C214.941 476.209 213.667 477.196 212.765 477.895C212.307 478.293 211.809 478.637 211.279 478.922V478.922Z" fill="#E0E0E0"/>
<path d="M172.47 464.769C173.006 464.835 173.532 464.968 174.036 465.166L178.242 466.536C181.771 467.701 186.64 469.359 192.001 471.222C197.361 473.085 202.204 474.839 205.693 476.141L209.819 477.703C210.333 477.869 210.827 478.094 211.292 478.374C210.756 478.318 210.23 478.189 209.726 477.991L205.521 476.621C201.991 475.456 197.122 473.798 191.762 471.921C186.402 470.044 181.559 468.304 178.069 467.016L173.943 465.44C173.425 465.285 172.93 465.06 172.47 464.769V464.769Z" fill="#E0E0E0"/>
<path d="M176.955 521.014C177.637 521.119 178.308 521.293 178.958 521.534L184.345 523.233C188.882 524.699 195.132 526.768 202.031 529.111C208.93 531.454 215.153 533.592 219.651 535.195L224.958 537.113C225.618 537.331 226.261 537.602 226.882 537.922C226.194 537.817 225.519 537.643 224.865 537.401L219.478 535.702C214.94 534.236 208.691 532.167 201.792 529.824C194.893 527.481 188.67 525.33 184.186 523.74L178.878 521.808C178.215 521.604 177.571 521.338 176.955 521.014Z" fill="#E0E0E0"/>
<path d="M225.793 537.168C226.261 536.576 226.78 536.03 227.346 535.538L231.737 531.276C235.439 527.673 240.534 522.672 246.014 516.986C251.493 511.299 256.336 506.024 259.812 502.188L263.925 497.639C264.409 497.058 264.937 496.517 265.504 496.022C265.118 496.666 264.673 497.272 264.177 497.831C263.275 498.968 261.922 500.571 260.197 502.544C256.814 506.49 252.037 511.834 246.531 517.52C241.025 523.206 235.917 528.166 232.096 531.674C230.185 533.414 228.633 534.825 227.532 535.784C226.99 536.295 226.409 536.758 225.793 537.168V537.168Z" fill="#E0E0E0"/>
<path d="M93.8581 70.6383L80.9087 66.5278C80.9087 66.5278 77.5121 77.7632 66.1548 74.3241C63.9561 73.6988 61.9999 72.3832 60.5571 70.5593C59.1142 68.7354 58.256 66.4935 58.1013 64.1437C57.9313 62.1622 58.2218 60.1674 58.9487 58.3252C59.6756 56.4831 60.818 54.8467 62.2806 53.5523C65.6109 50.5105 71.4487 48.6608 79.688 53.059L88.8031 22.9152L75.9996 18.8047L70.6924 36.4662C70.6924 36.4662 51.2683 35.466 45.0988 55.8953C39.1946 75.4477 54.7976 85.4636 62.0683 87.8066C67.5878 89.5878 86.9721 94.3012 93.8581 70.6383Z" fill="#F5F5F5"/>
<path d="M77.7341 12.5303L90.729 16.7178L94.5152 4.18738L81.5203 -0.00013264L77.7341 12.5303Z" fill="#F5F5F5"/>
<path d="M129.589 36.603L134.776 35.2328C134.618 34.6244 134.58 33.9893 134.664 33.3653C134.748 32.7413 134.952 32.1411 135.266 31.6004C135.579 31.0597 135.994 30.5896 136.486 30.2179C136.979 29.8463 137.539 29.5807 138.133 29.437C138.997 29.1675 139.921 29.1824 140.777 29.4794C141.633 29.7765 142.378 30.341 142.909 31.0949C143.36 31.7209 143.662 32.4481 143.789 33.2173C143.915 33.9865 143.864 34.7757 143.639 35.5206C143.148 37.2607 141.569 39.1515 137.907 39.4667L140.999 51.5379L146.12 50.1677L144.316 43.0976C146.258 41.8879 147.761 40.0521 148.593 37.8731C149.425 35.6942 149.54 33.2931 148.92 31.0401C146.93 23.2027 139.632 23.2438 136.753 24.0248C134.524 24.5592 127.081 27.1762 129.589 36.603Z" fill="#EBEBEB"/>
<path d="M147.927 51.9282L142.702 53.3745L144.009 58.4117L149.235 56.9653L147.927 51.9282Z" fill="#EBEBEB"/>
<path d="M557.888 175.278L562.93 177.156C563.141 176.566 563.465 176.026 563.881 175.568C564.298 175.109 564.799 174.741 565.356 174.486C565.912 174.231 566.512 174.093 567.121 174.081C567.73 174.069 568.335 174.182 568.9 174.415C569.749 174.697 570.493 175.244 571.03 175.98C571.567 176.716 571.87 177.605 571.899 178.526C571.93 179.312 571.78 180.094 571.462 180.808C571.144 181.523 570.666 182.149 570.068 182.636C568.741 183.773 566.366 184.39 563.182 182.499L559.055 194.242L564.044 196.105L566.459 189.254C568.723 189.399 570.971 188.772 572.857 187.47C574.744 186.169 576.164 184.263 576.901 182.047C579.554 174.429 573.57 170.195 570.744 169.14C568.582 168.263 561.019 166.057 557.888 175.278Z" fill="#EBEBEB"/>
<path d="M563.298 198.485L558.233 196.591L556.521 201.473L561.585 203.368L563.298 198.485Z" fill="#EBEBEB"/>
<path d="M22.8217 234.908L33.436 230.661C33.436 230.661 29.9864 221.412 39.234 217.534C41.0039 216.761 42.9625 216.574 44.8399 216.998C46.7172 217.423 48.4207 218.438 49.7156 219.905C50.8173 221.124 51.6247 222.595 52.072 224.197C52.5192 225.8 52.5938 227.488 52.2896 229.126C51.6262 232.935 48.7073 237.347 41.0252 238.868L50.3127 263.709L60.927 259.517L55.4871 244.965C55.4871 244.965 68.755 235.128 62.5324 218.274C56.4955 202.161 41.0517 203.997 35.121 206.368C30.5436 208.19 15.3652 215.548 22.8217 234.908Z" fill="#F5F5F5"/>
<path d="M62.9378 264.573L52.2284 268.834L56.0825 279.165L66.7918 274.904L62.9378 264.573Z" fill="#F5F5F5"/>
<path d="M562.04 276.712L554.478 279.713C554.478 279.713 556.919 286.276 550.365 289.016C549.11 289.558 547.724 289.688 546.395 289.389C545.066 289.09 543.858 288.376 542.935 287.344C542.154 286.48 541.583 285.438 541.267 284.302C540.951 283.166 540.899 281.969 541.117 280.809C541.595 278.068 543.664 274.999 549.078 273.958L542.576 256.296L535.093 259.27L538.941 269.587C536.218 271.739 534.254 274.754 533.353 278.171C532.452 281.587 532.662 285.215 533.952 288.495C538.211 299.909 549.117 298.621 553.363 296.936C556.574 295.634 567.321 290.427 562.04 276.712Z" fill="#F5F5F5"/>
<path d="M533.613 255.691L541.202 252.671L538.474 245.358L530.884 248.378L533.613 255.691Z" fill="#F5F5F5"/>
<path d="M498.186 51.3131H503.493C503.49 50.6915 503.607 50.0754 503.838 49.5014C504.069 48.9274 504.409 48.4072 504.839 47.9715C505.268 47.5358 505.778 47.1935 506.337 46.9649C506.897 46.7363 507.496 46.6261 508.097 46.6408C508.986 46.6079 509.862 46.8622 510.604 47.3681C511.346 47.8741 511.917 48.6065 512.237 49.4634C512.516 50.1769 512.628 50.9486 512.564 51.7154C512.499 52.4822 512.26 53.2224 511.865 53.8753C510.963 55.4099 509 56.7938 505.444 56.1498V68.4814H510.658V61.2743C512.798 60.6238 514.672 59.2662 515.992 57.4099C517.313 55.5536 518.007 53.3011 517.969 50.998C517.969 43.0236 511.043 41.1738 508.071 41.1738C505.802 41.119 498.08 41.6808 498.186 51.3131Z" fill="#2E5CFF"/>
<path d="M510.698 70.975H505.404V76.0858H510.698V70.975Z" fill="#2E5CFF"/>
<path d="M469.249 58.6026C469.231 58.8352 469.231 59.0688 469.249 59.3014C469.249 59.7947 469.249 60.4661 469.249 61.3293C469.249 61.7677 469.249 62.2747 469.315 62.8228C469.382 63.3708 469.461 63.9737 469.554 64.604C469.647 65.2343 469.74 65.9742 469.846 66.7004L470.403 69.0297C471.389 73.041 473.002 76.8593 475.18 80.3336C478.342 85.4789 482.604 89.8069 487.639 92.9851C492.674 96.1632 498.347 98.1068 504.223 98.6665C505.988 98.8274 507.761 98.8641 509.53 98.7761C510.419 98.7761 511.335 98.7761 512.184 98.598L514.917 98.1732C518.667 97.4534 522.296 96.175 525.691 94.3779C529.234 92.4414 532.491 89.9914 535.363 87.1022C538.303 84.0251 540.76 80.4933 542.647 76.6341C544.677 72.6555 546.006 68.3364 546.574 63.8778C546.74 62.7482 546.833 61.6084 546.853 60.4661C546.941 59.3221 546.963 58.1737 546.919 57.0269C546.63 49.6767 544.406 42.547 540.484 36.4058V36.8306C542.328 32.0761 544.146 27.4038 545.924 22.8548L546.242 22.019L545.407 22.2656L530.945 26.3762L531.29 26.4584C526.419 22.6505 520.745 20.0869 514.731 18.9772C511.942 18.4402 509.099 18.2608 506.266 18.4429C504.901 18.4639 503.539 18.5968 502.193 18.8402L500.216 19.1554C499.566 19.2787 498.889 19.4842 498.306 19.6349C489.394 21.9671 481.577 27.4994 476.255 35.2412C474.27 38.0932 472.676 41.2147 471.518 44.5172C471.266 45.2434 471.027 45.8874 470.801 46.5999C470.576 47.3124 470.456 47.9701 470.311 48.5867C470.165 49.2032 470.005 49.8335 469.873 50.409C469.74 50.9845 469.7 51.5462 469.621 52.0806C469.501 53.1356 469.315 54.0674 469.276 54.821C469.236 55.5746 469.276 56.3007 469.276 56.8762C469.276 57.4517 469.276 57.8079 469.276 58.1231C469.276 58.4382 469.276 58.5478 469.276 58.5478C469.296 58.407 469.296 58.2639 469.276 58.1231C469.276 57.8079 469.276 57.3969 469.369 56.8762C469.461 56.3556 469.448 55.6294 469.501 54.8347C469.554 54.04 469.753 53.1082 469.912 52.0943C471.178 44.511 474.549 37.4702 479.615 31.8273C484.681 26.1843 491.225 22.182 498.452 20.3063C499.075 20.1556 499.699 19.9638 500.336 19.8404L502.286 19.539C503.602 19.3122 504.932 19.1885 506.266 19.169C509.047 19.0177 511.835 19.2063 514.572 19.7308C520.445 20.847 525.984 23.3667 530.746 27.0887L530.905 27.2257H531.104L545.579 23.1152L545.075 22.526L539.622 36.488L539.542 36.7073L539.662 36.9128C542.274 40.9949 544.128 45.5438 545.128 50.3268C545.586 52.5458 545.861 54.801 545.95 57.068C545.995 58.1874 545.973 59.3084 545.884 60.425C545.876 61.5401 545.787 62.653 545.619 63.7545C545.109 68.1086 543.856 72.3348 541.917 76.2368C540.073 80.0083 537.679 83.4649 534.819 86.4857C532.009 89.322 528.818 91.7262 525.346 93.6243C522.027 95.4068 518.473 96.6763 514.798 97.3922L512.144 97.817C511.255 97.954 510.366 97.9403 509.49 98.0088C507.761 98.0938 506.028 98.0617 504.303 97.9129C498.523 97.3904 492.935 95.5148 487.962 92.4284C482.99 89.342 478.763 85.126 475.604 80.1006C473.415 76.6869 471.775 72.9298 470.748 68.9748L470.151 66.673C470.032 65.9468 469.926 65.3028 469.82 64.6177C469.713 63.9326 469.634 63.3845 469.541 62.8365C469.448 62.2884 469.475 61.7951 469.435 61.3567C469.435 60.5072 469.329 59.8358 469.289 59.3425C469.314 59.0953 469.301 58.8455 469.249 58.6026V58.6026Z" fill="#263238"/>
<path d="M151.268 220.179H227.89C227.89 220.179 227.89 153.739 294.746 152.561C329.468 151.931 347.473 175.429 354.797 193.419C363.288 214.315 360.714 238.128 349.33 257.516C336.341 279.644 308.346 301.882 256.707 292.483L256.216 468.783H331.989V364.266C331.989 364.266 438.251 335.904 438.251 214.917C438.251 99.2063 347.645 74.2144 298.939 72.5976C271.846 71.707 262.028 70.5012 228.513 75.4202C185.804 81.723 150.366 132.94 151.268 220.179Z" fill="#2E5CFF"/>
<path d="M332.904 505.531H256.004V579.699H332.904V505.531Z" fill="#2E5CFF"/>
<path opacity="0.1" d="M332.904 505.531H256.004V579.699H332.904V505.531Z" fill="black"/>
<path opacity="0.1" d="M151.268 220.179H227.89C227.89 220.179 227.89 153.739 294.746 152.561C329.468 151.931 347.473 175.429 354.797 193.419C363.288 214.315 360.714 238.128 349.33 257.516C336.341 279.644 308.346 301.882 256.707 292.483L256.216 468.783H331.989V364.266C331.989 364.266 438.251 335.904 438.251 214.917C438.251 99.2063 347.645 74.2144 298.939 72.5976C271.846 71.707 262.028 70.5012 228.513 75.4202C185.804 81.723 150.366 132.94 151.268 220.179Z" fill="black"/>
<path d="M119.518 220.179H196.153C196.153 220.179 196.153 153.739 263.009 152.561C297.731 151.93 315.736 175.429 323.046 193.419C331.551 214.314 328.977 238.128 317.593 257.516C304.604 279.644 276.118 299.758 224.479 290.4V468.783H300.252V364.266C300.252 364.266 406.514 335.904 406.514 214.917C406.514 99.2061 306.024 72.337 263.023 72.337C230.132 72.3781 118.071 80.5855 119.518 220.179Z" fill="#2E5CFF"/>
<path opacity="0.3" d="M119.518 220.179H196.153C196.153 220.179 196.153 153.739 263.009 152.561C297.731 151.93 315.736 175.429 323.046 193.419C331.551 214.314 328.977 238.128 317.593 257.516C304.604 279.644 276.118 299.758 224.479 290.4V468.783H300.252V364.266C300.252 364.266 406.514 335.904 406.514 214.917C406.514 99.2061 306.024 72.337 263.023 72.337C230.132 72.3781 118.071 80.5855 119.518 220.179Z" fill="black"/>
<path d="M301.168 505.531H224.267V579.699H301.168V505.531Z" fill="#2E5CFF"/>
<path opacity="0.3" d="M301.168 505.531H224.267V579.699H301.168V505.531Z" fill="black"/>
<path d="M271.66 152.917C271.28 152.951 270.899 152.951 270.519 152.917C269.763 152.917 268.675 152.657 267.255 152.643C263.241 152.439 259.218 152.614 255.234 153.164C249.328 153.936 243.515 155.346 237.893 157.37C234.579 158.566 231.351 160.004 228.234 161.673C224.865 163.411 221.692 165.53 218.774 167.989C215.876 170.471 213.279 173.305 211.039 176.429C208.916 179.318 206.979 182.348 205.241 185.5C202.34 190.867 200.038 196.558 198.382 202.463C197.259 206.447 196.486 210.529 196.073 214.657C195.914 216.11 195.874 217.26 195.834 218.028C195.835 218.423 195.8 218.818 195.728 219.206C195.694 218.814 195.694 218.42 195.728 218.028C195.728 217.247 195.728 216.096 195.848 214.63C196.153 210.457 196.859 206.326 197.957 202.298C199.553 196.326 201.824 190.568 204.724 185.144C206.465 181.957 208.411 178.895 210.548 175.977C212.807 172.801 215.436 169.925 218.376 167.414C221.33 164.92 224.543 162.774 227.956 161.015C231.092 159.316 234.342 157.851 237.681 156.63C243.354 154.614 249.222 153.235 255.181 152.52C259.191 152.011 263.24 151.915 267.268 152.232C268.363 152.304 269.453 152.442 270.532 152.643C270.914 152.707 271.291 152.799 271.66 152.917Z" fill="#263238"/>
<path d="M387.117 138.818C387.117 138.818 387.024 138.722 386.865 138.517C386.706 138.311 386.467 137.955 386.201 137.557L383.667 133.858C383.123 133.063 382.539 132.145 381.849 131.2L379.461 128.199L376.728 124.733C375.733 123.527 374.565 122.362 373.398 121.088C372.23 119.814 371.036 118.457 369.683 117.156C368.33 115.854 366.883 114.525 365.397 113.155C364.654 112.47 363.925 111.784 363.129 111.058L360.661 109.044C358.976 107.674 357.304 106.304 355.486 104.934C347.563 99.0797 339.159 93.9539 330.37 89.615L323.378 86.354L316.439 83.6137C314.17 82.6408 311.862 81.9558 309.633 81.1885C307.404 80.4212 305.228 79.6402 302.999 79.1058L296.657 77.3931C294.6 76.8313 292.557 76.4888 290.606 76.0229C288.656 75.557 286.772 75.146 284.928 74.9131L279.621 74.1184C276.264 73.5292 273.186 73.4059 270.506 73.1318C269.179 73.0222 267.852 72.8715 266.751 72.8167L263.593 72.7345L259.215 72.5838H258.074H257.689C257.816 72.5632 257.946 72.5632 258.074 72.5838H259.215H263.593H266.764C267.918 72.5838 269.179 72.7482 270.532 72.8441C273.186 73.077 276.317 73.1729 279.674 73.7347L284.981 74.4746C286.825 74.6938 288.709 75.1871 290.673 75.557C292.636 75.927 294.653 76.3106 296.763 76.9272L303.131 78.6262C305.334 79.1469 307.51 79.9964 309.765 80.6952C312.021 81.394 314.316 82.0654 316.585 83.1067L323.564 85.847L330.596 89.1218C339.431 93.4705 347.868 98.6342 355.805 104.55C357.636 105.92 359.307 107.386 360.992 108.743L363.46 110.592C364.256 111.277 364.986 111.963 365.729 112.702L370.001 116.813C371.328 118.183 372.522 119.553 373.703 120.8C374.884 122.047 376.012 123.266 377.007 124.486L379.66 127.98L382.022 131.022C382.699 131.981 383.269 132.912 383.8 133.762C384.835 135.365 385.644 136.626 386.215 137.53L386.838 138.53C386.943 138.613 387.036 138.71 387.117 138.818V138.818Z" fill="#263238"/>
<path d="M379.13 308.72C378.972 309.016 378.78 309.292 378.559 309.542L376.728 311.775C375.972 312.775 375.017 313.967 373.836 315.297C372.655 316.626 371.394 318.188 369.855 319.804C368.316 321.421 366.671 323.23 364.8 325.052C362.93 326.875 360.9 328.793 358.737 330.793C349.251 339.343 338.853 346.749 327.743 352.867C325.169 354.237 322.741 355.607 320.393 356.662C318.044 357.717 315.855 358.8 313.839 359.676C311.822 360.553 309.964 361.28 308.346 361.924C306.727 362.568 305.307 363.088 304.14 363.472L301.486 364.362C301.178 364.489 300.858 364.581 300.531 364.636C300.817 364.467 301.119 364.33 301.433 364.225L304.087 363.212C305.241 362.787 306.634 362.239 308.24 361.554C309.845 360.869 311.702 360.183 313.693 359.211C315.683 358.238 317.885 357.32 320.181 356.128C322.476 354.936 324.93 353.675 327.491 352.291C332.546 349.414 337.999 346.043 343.505 342.152C349.012 338.261 353.961 334.164 358.365 330.3C360.528 328.327 362.598 326.477 364.442 324.614C366.286 322.75 368.011 321.065 369.537 319.448C371.063 317.831 372.403 316.338 373.597 315.023C374.791 313.707 375.773 312.556 376.569 311.597L378.426 309.419C378.642 309.166 378.877 308.933 379.13 308.72V308.72Z" fill="#263238"/>
<path d="M298.912 462.562C298.713 462.562 298.554 440.557 298.554 413.414C298.554 386.271 298.713 364.252 298.912 364.252C299.111 364.252 299.257 386.257 299.257 413.414C299.257 440.571 299.098 462.562 298.912 462.562Z" fill="#263238"/>
<path d="M301.831 574.67C301.632 574.67 301.486 559.228 301.486 540.183C301.486 521.137 301.632 505.682 301.831 505.682C302.03 505.682 302.176 521.123 302.176 540.183C302.176 559.242 302.017 574.67 301.831 574.67Z" fill="#263238"/>
<path d="M377.26 209.67C375.934 212.41 380.883 214.657 383.735 215.548C386.645 216.285 389.657 216.499 392.638 216.178C396.618 215.959 400.691 215.575 404.128 213.547C407.137 211.622 409.543 208.838 411.054 205.532C412.543 202.236 413.721 198.799 414.57 195.269C414.57 195.269 383.218 197.379 377.26 209.67Z" fill="#2E5CFF"/>
<g opacity="0.4">
<path d="M377.26 209.67C375.934 212.41 380.883 214.657 383.735 215.548C386.645 216.285 389.657 216.499 392.638 216.178C396.618 215.959 400.691 215.575 404.128 213.547C407.137 211.622 409.543 208.838 411.054 205.532C412.543 202.236 413.721 198.799 414.57 195.269C414.57 195.269 383.218 197.379 377.26 209.67Z" fill="black"/>
</g>
<path d="M465.81 200.9C470.979 204.687 477.173 206.691 483.509 206.628C486.547 206.803 489.542 205.828 491.934 203.887C492.956 202.915 493.726 201.681 494.774 200.75C495.49 200.119 496.326 199.64 497.003 198.969C497.36 198.651 497.635 198.247 497.804 197.793C497.973 197.338 498.031 196.848 497.971 196.365C497.709 195.175 497.064 194.112 496.14 193.351C492.545 191.241 488.246 191.323 484.106 191.419C479.964 191.604 475.871 192.431 471.966 193.871C468.755 194.995 465.399 196.612 463.767 199.626" fill="#2E5CFF"/>
<g opacity="0.4">
<path d="M497.971 196.365C497.502 195.209 496.677 194.246 495.623 193.625C492.027 191.515 488.246 191.323 484.106 191.419C479.964 191.604 475.871 192.431 471.966 193.871C468.755 194.995 465.399 196.612 463.767 199.626L465.81 200.9C470.979 204.686 477.173 206.691 483.509 206.628C486.547 206.802 489.542 205.828 491.934 203.887C492.956 202.914 493.726 201.681 494.774 200.75C495.49 200.119 496.326 199.64 497.003 198.968C497.36 198.651 497.635 198.247 497.804 197.793C497.973 197.338 498.031 196.848 497.971 196.365V196.365Z" fill="black"/>
</g>
<path d="M404.592 250.076L470.733 250.98C470.867 250.98 471 250.947 471.12 250.884C471.24 250.821 471.344 250.73 471.424 250.618C471.504 250.507 471.558 250.377 471.58 250.24C471.603 250.103 471.594 249.962 471.555 249.829L463.793 224.837C463.793 224.837 464.934 212.341 466.513 197.324C468.915 174.511 472.112 145.833 472.152 145.915C467.628 132.816 440.933 130.597 440.933 130.597L410.51 132.46L409.448 130.61L400.692 134.817C398.782 135.734 396.945 136.806 395.199 138.023C389.414 142.01 375.483 151.177 372.935 161.384C367.058 185.02 377.008 211.396 377.008 211.396L383.404 206.23C385.014 204.948 386.708 203.781 388.472 202.736L401.289 238.21C400.526 238.707 399.88 239.373 399.398 240.16C398.916 240.947 398.61 241.835 398.502 242.759C398.396 245.636 399.829 249.089 404.592 250.076" fill="#2E5CFF"/>
<g opacity="0.3">
<path d="M432.972 208.258C435.068 196.611 433.967 184.636 432.839 172.853C429.177 182.444 429.31 193.405 425.423 202.914C424.946 203.918 424.598 204.982 424.388 206.079C424.286 206.63 424.313 207.198 424.465 207.736C424.617 208.274 424.891 208.768 425.263 209.176C426.325 210.176 427.917 209.628 429.323 209.464C430.582 209.216 431.808 208.811 432.972 208.258" fill="black"/>
</g>
<g opacity="0.4">
<path d="M408.573 235.223C413.88 237.128 419.532 233.579 425.144 232.949C428.859 232.538 432.574 233.415 436.263 234.031C443.721 235.277 451.309 235.471 458.818 234.607C459.97 234.541 461.098 234.239 462.135 233.716C462.671 233.339 463.109 232.832 463.412 232.24C463.715 231.648 463.873 230.988 463.873 230.318C451.375 228.948 438.89 228.208 426.391 226.879C423.28 226.331 420.094 226.438 417.024 227.194C413.256 228.4 410.39 231.455 407.737 234.484" fill="black"/>
</g>
<path d="M496.061 191.871C490.661 179.306 471.621 144.559 471.621 144.559L456.881 163.645L460.317 201.119C460.317 201.119 468.105 192.145 489.878 191.967C491.46 192.032 493.008 192.462 494.409 193.226C495.809 193.989 497.026 195.066 497.971 196.379L496.061 191.871Z" fill="#2E5CFF"/>
<path d="M407.551 185.226C406.5 182.562 405.665 179.812 405.057 177.005C404.233 174.27 403.629 171.47 403.252 168.633C404.289 171.301 405.118 174.05 405.733 176.854C406.558 179.589 407.166 182.389 407.551 185.226V185.226Z" fill="#263238"/>
<path d="M455.766 161.11C456.246 161.461 456.691 161.86 457.093 162.302C458.265 163.471 459.364 164.716 460.383 166.029C463.814 170.36 466.226 175.454 467.429 180.909C468.053 183.925 468.192 187.027 467.84 190.09C467.508 192.898 466.991 195.365 466.646 197.447C466.301 199.53 466.089 201.229 465.982 202.407C465.979 203.02 465.917 203.63 465.797 204.23C465.703 203.618 465.676 202.998 465.717 202.38C465.775 200.701 465.926 199.027 466.168 197.365C466.447 195.269 466.911 192.775 467.216 190.021C467.523 187.027 467.366 184.003 466.752 181.06C465.564 175.706 463.259 170.684 459.999 166.344C457.571 162.974 455.66 161.22 455.766 161.11Z" fill="#263238"/>
<path d="M442.26 247.061C441.799 247.274 441.312 247.421 440.814 247.5C440.247 247.654 439.671 247.769 439.089 247.842C438.412 247.938 437.643 248.089 436.78 248.13C434.759 248.322 432.725 248.322 430.704 248.13C428.23 247.868 425.787 247.363 423.406 246.623C421.038 245.837 418.745 244.823 416.56 243.595C414.788 242.574 413.106 241.395 411.532 240.073C410.842 239.525 410.284 238.95 409.78 238.47C409.345 238.066 408.933 237.636 408.546 237.182C408.177 236.83 407.86 236.424 407.604 235.977C407.697 235.881 409.117 237.525 411.837 239.676C413.426 240.925 415.107 242.042 416.865 243.019C419.026 244.192 421.281 245.168 423.605 245.938C425.945 246.666 428.343 247.179 430.77 247.472C432.752 247.693 434.748 247.757 436.74 247.664C440.15 247.472 442.233 246.952 442.26 247.061Z" fill="#263238"/>
<path d="M462.679 239.279C462.991 239.898 463.168 240.581 463.197 241.279C463.408 242.95 463.286 244.647 462.838 246.267C462.383 247.924 461.459 249.402 460.185 250.514C459.216 251.35 458.473 251.61 458.433 251.542C458.394 251.473 459.017 251.021 459.853 250.172C460.926 249.016 461.706 247.604 462.122 246.061C463.183 242.444 462.427 239.293 462.679 239.279Z" fill="#263238"/>
<path d="M459.083 244.102C459.371 245.511 459.256 246.977 458.752 248.319C458.248 249.662 457.376 250.825 456.244 251.665C456.098 251.515 457.332 250.158 458.101 248.062C458.871 245.965 458.884 244.116 459.083 244.102Z" fill="#263238"/>
<path d="M447.248 199.023C446.545 200.25 445.756 201.423 444.887 202.531C444.201 203.768 443.424 204.95 442.565 206.066C442.82 204.62 443.422 203.263 444.316 202.12C445.023 200.847 446.032 199.782 447.248 199.023V199.023Z" fill="#263238"/>
<path d="M401.846 165.838C400.835 165.225 399.856 164.557 398.914 163.837C394.195 160.636 388.84 158.571 383.244 157.795C382.073 157.707 380.908 157.546 379.755 157.315C380.93 157.148 382.122 157.148 383.298 157.315C389.046 157.822 394.551 159.939 399.219 163.44C400.198 164.109 401.082 164.916 401.846 165.838Z" fill="#263238"/>
<path d="M471.621 144.106C469.247 146.081 467.028 148.248 464.987 150.587C463.108 153.084 461.427 155.732 459.959 158.507C460.116 157.574 460.426 156.675 460.874 155.849C461.835 153.794 463.038 151.871 464.457 150.122C465.879 148.376 467.511 146.824 469.313 145.504C469.999 144.904 470.78 144.432 471.621 144.106Z" fill="#263238"/>
<path d="M444.316 132.816C444.437 133.014 444.535 133.226 444.608 133.447C444.867 134.067 445.076 134.709 445.232 135.365C445.791 137.807 445.791 140.35 445.232 142.791C444.406 146.436 442.517 149.732 439.819 152.232C436.413 155.211 432.074 156.808 427.612 156.726C423.146 156.742 418.795 155.266 415.207 152.52C412.348 150.265 410.028 147.364 408.427 144.038C407.348 141.811 406.588 139.434 406.171 136.982C406.05 136.321 405.97 135.653 405.933 134.981C405.895 134.745 405.895 134.505 405.933 134.269C405.933 134.269 406.078 135.228 406.45 136.927C406.966 139.31 407.782 141.614 408.878 143.778C410.496 147.003 412.795 149.813 415.605 151.999C419.062 154.643 423.244 156.082 427.546 156.109C431.847 156.191 436.033 154.674 439.341 151.834C441.947 149.426 443.796 146.267 444.648 142.764C445.238 140.399 445.32 137.93 444.887 135.529C444.635 133.721 444.237 132.844 444.316 132.816Z" fill="#263238"/>
<g opacity="0.3">
<path d="M448.96 201.448C448.96 200.763 448.854 199.955 448.27 199.612C448.085 199.516 447.88 199.466 447.673 199.466C447.465 199.466 447.261 199.516 447.076 199.612C446.705 199.819 446.376 200.099 446.107 200.434C444.547 202.111 443.341 204.103 442.565 206.285L449.066 205.696C449.026 204.312 449 202.86 448.96 201.448Z" fill="black"/>
</g>
<g opacity="0.3">
<path d="M470.547 187.322C469.893 183.48 468.263 179.886 465.823 176.909C468.636 186.39 467.694 191.748 466.115 198.242L466.46 197.338C468.278 193.543 471.038 191.158 470.547 187.322Z" fill="black"/>
</g>
<path d="M457.558 505.833L453.591 567.285L427.718 566.97L423.645 503.079L457.558 505.833Z" fill="#FFBE9D"/>
<path d="M454.32 559.201V560.982C454.32 560.982 483.509 573.094 483.788 578.794L425.821 578.465L426.723 558.557C435.36 562.736 444.396 563.256 454.32 559.201Z" fill="#2E5CFF"/>
<path d="M432.6 564.942C432.05 565.113 431.58 565.486 431.277 565.991C430.974 566.495 430.859 567.097 430.955 567.682C431.097 568.266 431.453 568.771 431.948 569.091C432.442 569.41 433.038 569.519 433.609 569.395C434.199 569.212 434.703 568.81 435.022 568.265C435.34 567.721 435.452 567.073 435.334 566.449C435.123 565.857 434.698 565.373 434.148 565.099C433.599 564.826 432.967 564.784 432.388 564.983" fill="white"/>
<path d="M425.821 578.465L426.033 573.683L481.546 575.766C481.546 575.766 484.12 576.944 483.814 578.808L425.821 578.465Z" fill="#263238"/>
<path d="M454.532 561.146C454.532 561.434 453.1 561.557 451.706 562.516C450.313 563.475 449.557 564.667 449.305 564.558C449.053 564.448 449.477 562.749 451.189 561.653C452.901 560.557 454.599 560.831 454.532 561.146Z" fill="#263238"/>
<path d="M460.596 563.777C460.662 564.065 459.428 564.544 458.46 565.778C457.491 567.011 457.212 568.312 456.921 568.299C456.629 568.285 456.469 566.627 457.703 565.134C458.937 563.64 460.583 563.572 460.596 563.777Z" fill="#263238"/>
<path d="M464.006 571.313C463.74 571.313 463.356 569.943 464.099 568.312C464.842 566.682 466.155 566.093 466.274 566.326C466.394 566.559 465.571 567.422 464.948 568.751C464.324 570.08 464.298 571.286 464.006 571.313Z" fill="#263238"/>
<path d="M452.834 56.4022C454.333 52.5657 452.516 47.9208 449.292 45.4408C445.894 43.1308 441.75 42.2987 437.762 43.1252C433.827 43.9772 430.017 45.3592 426.431 47.2357C424.763 45.4988 422.661 44.2748 420.359 43.7004C418.057 43.1259 415.645 43.2236 413.393 43.9826C411.142 44.7415 409.139 46.1319 407.608 47.9984C406.077 49.8648 405.079 52.134 404.725 54.5524C403.29 54.1795 401.785 54.2171 400.369 54.661C398.954 55.1049 397.682 55.9385 396.691 57.0722C395.699 58.206 395.025 59.5971 394.741 61.0964C394.457 62.5956 394.574 64.1464 395.079 65.5823L413.017 72.0907L432.601 107.715C435.495 110.265 439.189 111.641 442.993 111.585C446.797 111.529 450.451 110.046 453.274 107.413C456.097 104.779 457.896 101.175 458.335 97.2721C458.774 93.3695 457.823 89.4353 455.66 86.2034C456.757 85.1957 457.689 84.0112 458.42 82.6958C459.985 81.7401 461.35 80.4727 462.437 78.9673C463.523 77.4619 464.309 75.7485 464.749 73.9267C466.487 65.9934 460.543 57.3339 452.834 56.4022Z" fill="#263238"/>
<path d="M440.959 130.597C439.845 124.801 439.075 120.827 439.089 120.868C439.102 120.91 449.703 116.621 448.933 101.371C448.562 93.7802 445.762 81.8185 443.162 72.1177C440.827 63.376 432.932 53.7437 424.587 56.5251L399.285 69.2678C396.751 70.1173 396.313 72.5836 396.91 75.2554V76.6256L406.742 118.635L410.894 137.406C411.78 141.261 414.03 144.633 417.203 146.86C420.375 149.087 424.24 150.006 428.036 149.437C430.11 149.135 432.101 148.4 433.889 147.275C435.677 146.151 437.224 144.66 438.434 142.896C439.644 141.132 440.492 139.131 440.927 137.016C441.361 134.901 441.372 132.716 440.959 130.597V130.597Z" fill="#FFBE9D"/>
<path d="M443.069 82.257C443.176 82.7432 443.097 83.253 442.85 83.6813C442.604 84.1096 442.207 84.4238 441.742 84.5589C441.508 84.6265 441.263 84.6445 441.021 84.6116C440.78 84.5788 440.548 84.4959 440.338 84.3679C440.129 84.2399 439.946 84.0694 439.802 83.8668C439.658 83.6641 439.555 83.4335 439.5 83.1888C439.394 82.7043 439.473 82.1964 439.72 81.7703C439.967 81.3442 440.363 81.0328 440.827 80.9006C441.06 80.8308 441.305 80.8108 441.546 80.8419C441.788 80.8729 442.02 80.9544 442.23 81.0813C442.44 81.2082 442.623 81.3779 442.767 81.5801C442.911 81.7822 443.014 82.0125 443.069 82.257V82.257Z" fill="#263238"/>
<path d="M441.915 79.3387C441.729 79.6402 440.123 78.8866 438.16 79.3387C436.196 79.7909 434.949 81.1063 434.684 80.9007C434.418 80.6952 434.684 80.3116 435.228 79.7087C435.957 78.9121 436.907 78.3668 437.947 78.1467C438.974 77.9181 440.044 78.0383 440.999 78.4892C441.742 78.8044 441.994 79.2154 441.915 79.3387Z" fill="#263238"/>
<path d="M423.804 86.7514C423.91 87.2358 423.831 87.7438 423.584 88.1698C423.337 88.5959 422.941 88.9074 422.477 89.0396C422.248 89.1084 422.008 89.1297 421.771 89.1021C421.534 89.0745 421.304 88.9987 421.096 88.8789C420.887 88.7591 420.704 88.5978 420.556 88.4043C420.408 88.2108 420.299 87.989 420.235 87.7516C420.128 87.2654 420.207 86.7556 420.454 86.3273C420.7 85.899 421.097 85.5849 421.562 85.4497C421.792 85.3811 422.033 85.3604 422.27 85.3889C422.508 85.4173 422.738 85.4944 422.947 85.6155C423.156 85.7367 423.339 85.8995 423.486 86.0945C423.633 86.2895 423.741 86.5128 423.804 86.7514Z" fill="#263238"/>
<path d="M422.835 84.1755C422.663 84.4769 421.044 83.7096 419.08 84.1755C417.117 84.6413 415.87 85.9293 415.604 85.7375C415.339 85.5456 415.604 85.1483 416.148 84.5317C416.882 83.7423 417.83 83.2022 418.868 82.9834C419.894 82.7583 420.962 82.8734 421.92 83.3122C422.623 83.6411 422.928 84.011 422.835 84.1755Z" fill="#263238"/>
<path d="M432.826 97.0547C433.799 96.5005 434.833 96.0682 435.905 95.7668C436.395 95.6023 436.86 95.3968 436.873 95.0269C436.804 94.4819 436.577 93.9711 436.223 93.5608L433.928 89.9161C430.717 84.7232 428.276 80.4208 428.475 80.3249C428.674 80.229 431.447 84.2984 434.657 89.4914L436.9 93.1634C437.34 93.7254 437.579 94.4272 437.576 95.1502C437.537 95.3473 437.456 95.5329 437.339 95.694C437.222 95.855 437.072 95.9875 436.9 96.0819C436.64 96.2238 436.363 96.3298 436.077 96.397C435.028 96.7681 433.934 96.9894 432.826 97.0547Z" fill="#263238"/>
<path d="M439.089 120.869C432.378 122.435 425.378 122.046 418.869 119.745C418.869 119.745 425.821 129.117 439.845 124.637L439.089 120.869Z" fill="#EB996E"/>
<path d="M423.167 81.2708C423.034 81.86 421.004 81.8463 418.696 82.4355C416.387 83.0246 414.556 83.9153 414.185 83.4494C414.026 83.2302 414.291 82.6547 414.994 82.0792C415.929 81.2664 417.039 80.6977 418.231 80.4213C419.414 80.1317 420.645 80.1317 421.827 80.4213C422.769 80.5994 423.26 80.9968 423.167 81.2708Z" fill="#263238"/>
<path d="M441.159 72.8713C440.84 73.4193 439.142 73.2823 437.178 73.6797C435.215 74.077 433.662 74.7621 433.198 74.3647C432.986 74.1592 433.198 73.6385 433.768 72.9946C434.644 72.2337 435.703 71.7318 436.833 71.5422C437.944 71.311 439.096 71.3962 440.164 71.7888C440.973 72.1725 441.291 72.5972 441.159 72.8713Z" fill="#263238"/>
<path d="M405.534 59.4574C405.828 60.9417 406.435 62.341 407.311 63.5559C408.187 64.7709 409.312 65.7716 410.605 66.487C411.898 67.2024 413.328 67.615 414.793 67.6954C416.258 67.7758 417.722 67.5221 419.081 66.9523C421.177 66.0754 423.353 64.4311 425.476 65.2258C427.599 66.0205 428.475 69.1445 430.505 70.3092C433.49 72.0356 437.138 69.0486 440.469 69.3501C443.122 69.583 445.126 71.6794 447.182 73.4606C449.239 75.2418 452.078 76.5846 454.4 75.2966C453.868 73.0085 453.08 70.7921 452.052 68.6924C451.014 66.5785 449.297 64.9027 447.195 63.9516C446.028 63.472 444.767 63.3076 443.653 62.7184C441.252 61.4579 440.177 58.6079 438.439 56.4567C437.297 55.1011 435.859 54.046 434.244 53.3788C432.629 52.7116 430.883 52.4516 429.151 52.6202C426.285 52.9217 423.565 54.4152 420.673 54.2919C418.537 54.1959 416.494 53.2094 414.358 53.2505C410.205 53.2505 407.087 57.087 404.778 60.6632" fill="#263238"/>
<path d="M419.518 62.5952C417.608 62.4445 413.707 62.0334 412.42 60.6358C411.113 59.1256 409.444 57.9966 407.581 57.3618C405.718 56.727 403.727 56.6086 401.806 57.0186C399.9 57.6055 398.226 58.8089 397.032 60.4516C395.838 62.0944 395.186 64.0898 395.172 66.1439C392.85 66.729 390.725 67.9506 389.02 69.6798C387.315 71.409 386.095 73.5816 385.486 75.9681C384.869 78.4664 384.848 81.0822 385.426 83.5906C386.004 86.099 387.163 88.425 388.803 90.3686C389.6 91.3978 390.327 92.4829 390.979 93.6159C390.08 94.7685 389.289 96.0073 388.618 97.3154C385.579 104.248 393.819 106.907 393.819 106.907C393.819 111.565 397.998 111.538 400.665 111.524C403.332 111.51 404.804 118.868 406.887 118.58L404.778 95.8767C405.087 96.0008 405.415 96.0657 405.746 96.0685C410.775 96.1644 409.461 86.3266 407.843 83.737C409.341 81.8109 410.606 79.7036 411.611 77.4616C412.522 74.0341 412.585 70.4255 411.797 66.966C413.482 66.7468 420.341 62.65 419.518 62.5952Z" fill="#263238"/>
<path d="M405.441 97.0825C405.27 96.3611 404.925 95.6962 404.437 95.1499C403.95 94.6037 403.336 94.1938 402.654 93.9584C401.972 93.7231 401.243 93.6701 400.536 93.8043C399.828 93.9385 399.165 94.2555 398.608 94.7258C397.282 95.9041 396.578 97.8772 397.374 101.179C399.524 110.003 407.657 105.961 407.604 105.715C407.551 105.468 406.37 100.727 405.441 97.0825Z" fill="#FFBE9D"/>
<path d="M404.181 103.043C404.181 103.043 404.062 103.193 403.836 103.371C403.523 103.62 403.128 103.733 402.735 103.687C401.753 103.577 400.625 102.316 400.201 100.713C399.999 99.9643 399.958 99.1785 400.081 98.4114C400.095 98.1134 400.178 97.8232 400.324 97.5656C400.469 97.3079 400.673 97.0904 400.917 96.9316C401.078 96.842 401.265 96.8134 401.444 96.851C401.624 96.8885 401.785 96.9898 401.899 97.1372C402.072 97.3427 402.058 97.5345 402.111 97.5482C402.165 97.5619 402.257 97.3427 402.111 97.0001C402.01 96.797 401.847 96.6335 401.647 96.5343C401.366 96.417 401.052 96.417 400.771 96.5343C400.438 96.6977 400.15 96.9454 399.935 97.2544C399.719 97.5634 399.582 97.9237 399.538 98.3018C399.365 99.1647 399.397 100.058 399.63 100.905C399.778 101.701 400.151 102.434 400.701 103.011C401.251 103.589 401.954 103.986 402.722 104.152C402.972 104.163 403.22 104.115 403.45 104.013C403.68 103.911 403.884 103.758 404.049 103.563C404.221 103.262 404.221 103.056 404.181 103.043Z" fill="#EB996E"/>
<path d="M451.255 84.7643C451.255 84.7643 452.038 84.1478 453.126 82.7776C454.627 80.8033 455.548 78.4256 455.779 75.9267C455.955 74.2209 455.793 72.4959 455.302 70.8571C454.735 68.9772 453.685 67.2913 452.263 65.9793C450.622 64.499 448.635 63.4876 446.498 63.0454C444.362 62.6031 442.15 62.7454 440.084 63.4581C439.686 63.5952 439.314 63.8007 438.943 63.9651C438.571 64.1295 438.239 64.3762 437.894 64.5817L437.364 64.8831V64.2802C437.352 63.2188 436.971 62.1973 436.289 61.4029C435.591 60.6319 434.734 60.0326 433.781 59.6491C431.979 58.8736 429.983 58.7198 428.089 59.2106C424.428 60.0738 421.323 61.8002 418.391 62.1565C416.091 62.5692 413.726 62.0805 411.757 60.7863C411.237 60.4171 410.787 59.9527 410.43 59.4161C410.218 59.0462 410.112 58.8407 410.138 58.827C410.619 59.5036 411.206 60.0918 411.876 60.5671C413.813 61.7218 416.089 62.1159 418.285 61.6769C419.812 61.3801 421.306 60.9209 422.743 60.3067C424.429 59.6106 426.157 59.0294 427.917 58.5666C428.898 58.3215 429.907 58.2155 430.916 58.2515C431.98 58.3095 433.026 58.56 434.007 58.9914C435.021 59.439 435.928 60.1128 436.66 60.9644C437.445 61.892 437.887 63.0762 437.908 64.3077L437.377 64.0062L438.478 63.3485C438.889 63.1841 439.274 62.9649 439.699 62.8142C441.877 62.0438 444.214 61.8826 446.472 62.3471C448.73 62.8115 450.829 63.8851 452.555 65.4586C454.048 66.8537 455.14 68.6453 455.713 70.6378C456.309 72.7497 456.389 74.9809 455.947 77.1325C455.504 79.2841 454.554 81.2893 453.179 82.9694C452.742 83.4844 452.248 83.9443 451.706 84.3396C451.573 84.4995 451.422 84.6421 451.255 84.7643Z" fill="#455A64"/>
<path d="M449.53 53.7853C448.659 53.3286 447.73 53.0011 446.771 52.8124C445.674 52.6576 444.557 52.7654 443.507 53.1276C442.146 53.5573 440.965 54.4448 440.15 55.6487L439.818 56.1283L439.619 55.5802C438.926 53.8959 437.811 52.4328 436.389 51.3418C434.966 50.2507 433.287 49.5712 431.526 49.3733C428.759 49.2658 426.032 50.0827 423.751 51.7026C421.807 53.0111 419.74 54.1129 417.581 54.991C416.093 55.5724 414.49 55.7699 412.911 55.5665C412.49 55.4862 412.077 55.367 411.677 55.2102C411.412 55.0869 411.266 55.0184 411.279 54.991C411.292 54.9636 411.876 55.1691 412.951 55.2787C414.477 55.3772 416.005 55.1197 417.422 54.5252C419.52 53.5804 421.531 52.4432 423.432 51.1271C424.607 50.3742 425.851 49.7453 427.147 49.25C428.572 48.7134 430.095 48.5121 431.605 48.6608C433.487 48.873 435.278 49.6081 436.787 50.788C438.297 51.9678 439.468 53.5482 440.176 55.361H439.659C440.571 54.0733 441.874 53.1377 443.361 52.7028C444.49 52.3647 445.681 52.3037 446.837 52.5247C447.569 52.6683 448.27 52.9467 448.907 53.3468C449.134 53.4615 449.344 53.6092 449.53 53.7853V53.7853Z" fill="#455A64"/>
<path d="M432.057 101.111C431.747 100.843 431.386 100.646 430.997 100.533C430.608 100.419 430.201 100.392 429.801 100.453C429.334 100.556 428.893 100.759 428.507 101.05C428.12 101.34 427.797 101.711 427.559 102.138C427.559 102.138 427.492 102.207 427.479 102.248C427.297 102.561 427.213 102.925 427.24 103.289C427.298 103.686 427.449 104.062 427.681 104.385C427.912 104.707 428.216 104.966 428.567 105.139C429.128 105.432 429.763 105.54 430.385 105.447C431.007 105.354 431.586 105.064 432.043 104.618C432.477 104.145 432.72 103.519 432.722 102.867C432.725 102.215 432.487 101.587 432.057 101.111V101.111Z" fill="#2E5CFF"/>
<path d="M432.72 105.372C432.614 105.372 432.495 104.961 432.137 104.399C431.705 103.646 431.06 103.047 430.289 102.685C429.518 102.322 428.658 102.213 427.825 102.371C427.174 102.467 426.776 102.659 426.737 102.563C426.697 102.467 427.002 102.138 427.718 101.878C428.656 101.566 429.673 101.625 430.571 102.042C431.477 102.459 432.195 103.219 432.574 104.166C432.853 104.878 432.813 105.358 432.72 105.372Z" fill="#263238"/>
<path d="M405.64 107.071C405.64 107.071 406.025 107.756 405.521 108.797C405.236 109.42 404.733 109.909 404.114 110.167C403.728 110.31 403.315 110.358 402.907 110.308C402.5 110.259 402.109 110.112 401.766 109.88C401.417 109.66 401.121 109.361 400.903 109.004C400.684 108.648 400.548 108.244 400.506 107.824C400.466 107.147 400.658 106.478 401.05 105.933C401.739 105.029 402.509 105.002 402.509 105.084C402.509 105.166 401.925 105.399 401.461 106.221C401.192 106.682 401.08 107.222 401.142 107.756C401.192 108.068 401.307 108.366 401.478 108.629C401.65 108.891 401.875 109.112 402.137 109.277C402.397 109.448 402.688 109.561 402.992 109.608C403.296 109.655 403.606 109.636 403.902 109.551C404.392 109.37 404.814 109.034 405.11 108.592C405.627 107.742 405.534 107.071 405.64 107.071Z" fill="#2E5CFF"/>
<path d="M401.169 106.537C401.236 106.537 401.169 107.002 400.546 107.304C400.239 107.435 399.903 107.474 399.576 107.414C399.25 107.354 398.946 107.199 398.702 106.967C398.458 106.735 398.283 106.436 398.198 106.105C398.114 105.774 398.122 105.424 398.224 105.098C398.354 104.727 398.602 104.413 398.927 104.207C399.471 103.865 399.882 104.002 399.869 104.084C399.856 104.166 399.551 104.262 399.219 104.605C399.056 104.815 398.956 105.071 398.933 105.34C398.91 105.608 398.964 105.878 399.089 106.115C399.214 106.352 399.403 106.546 399.634 106.672C399.865 106.798 400.127 106.851 400.386 106.824C400.838 106.728 401.076 106.482 401.169 106.537Z" fill="#2E5CFF"/>
<path d="M415.751 228.222C415.751 228.222 448.602 230.195 468.026 230.373C483.058 230.523 489.772 226.399 492.77 216.411C495.291 208.039 489.878 191.967 489.878 191.967C479.702 191.967 473.426 193.474 466.885 196.639L468.623 203.983L415.658 208.697L415.751 228.222Z" fill="#FFBE9D"/>
<path d="M479.662 211.821C478.237 209.908 476.573 208.198 474.713 206.737C472.717 205.476 470.566 204.499 468.318 203.832C469.026 203.727 469.748 203.793 470.427 204.024C472.097 204.432 473.68 205.151 475.098 206.148C476.518 207.148 477.747 208.411 478.72 209.875C479.463 210.998 479.741 211.779 479.662 211.821Z" fill="#EB996E"/>
<path d="M403.73 196.584C403.73 196.584 393.567 199.105 386.097 204.257L394.057 226.536C396.711 233.853 404.818 237.498 411.306 233.661C421.296 227.756 424.826 210.546 424.826 210.546L435.798 161.385L417.608 149.615L403.796 196.584" fill="#FFBE9D"/>
<path d="M417.542 149.615L418.285 133.447L414.212 117.005C413.986 116.1 413.88 114.963 414.596 114.415C414.952 114.134 415.39 113.988 415.838 114.003C416.285 114.018 416.714 114.193 417.051 114.497C418.152 115.675 423.459 130.049 423.459 130.049C423.459 130.049 431.513 125.061 432.946 124.815C434.379 124.568 436.17 129.048 436.289 129.391C436.342 130.395 436.342 131.401 436.289 132.405C436.289 132.405 441.265 132.556 441.716 133.255C442.077 134.682 442.269 136.15 442.286 137.626C442.286 137.626 444.396 138.324 444.728 139.969C445.059 141.613 445.749 144.326 444.728 144.929C443.706 145.532 441.636 146.71 441.636 146.71C441.636 146.71 440.8 155.095 440.575 155.863C440.349 156.63 435.692 161.343 435.692 161.343L417.542 149.615Z" fill="#FFBE9D"/>
<path d="M400.612 233.99C400.612 233.99 401.103 234.291 402.138 234.634C403.651 235.124 405.252 235.255 406.821 235.017C409.343 234.646 411.704 233.522 413.615 231.784C416.14 229.418 418.273 226.641 419.93 223.563C420.906 221.754 421.727 219.86 422.385 217.904C423.075 215.751 423.646 213.56 424.096 211.341C425.131 206.723 426.259 201.75 427.453 196.461C429.841 185.897 432.521 174.086 435.414 161.357V161.261H435.48C436.396 160.329 437.311 159.384 438.226 158.397C438.678 157.904 439.129 157.411 439.553 156.904C439.766 156.644 439.991 156.383 440.164 156.123C440.298 155.865 440.375 155.579 440.389 155.287C440.747 152.547 441.026 149.71 441.318 146.847V146.669L441.477 146.586L444.011 145.12C444.197 144.997 444.489 144.86 444.608 144.75C444.735 144.632 444.819 144.473 444.847 144.298C444.909 143.844 444.909 143.383 444.847 142.928C444.719 141.923 444.519 140.93 444.25 139.955C443.799 139.102 443.041 138.468 442.14 138.187L441.915 138.105V137.872C441.915 137.077 441.835 136.255 441.742 135.447C441.706 135.042 441.649 134.64 441.57 134.241C441.539 134.066 441.485 133.895 441.411 133.734C441.411 133.638 441.411 133.734 441.331 133.652C441.259 133.613 441.183 133.581 441.106 133.556C439.51 133.197 437.883 133.009 436.25 132.994H435.905V132.638C435.905 131.789 435.905 130.843 435.905 129.898C435.85 129.575 435.742 129.265 435.586 128.98C435.453 128.651 435.294 128.336 435.135 128.007C434.824 127.372 434.46 126.767 434.047 126.198C433.859 125.933 433.631 125.702 433.37 125.513C433.274 125.429 433.156 125.377 433.031 125.362C432.906 125.347 432.779 125.371 432.667 125.431C432.025 125.685 431.4 125.982 430.796 126.322C428.329 127.692 425.914 129.062 423.552 130.542L423.207 130.761L423.061 130.377C421.814 127.13 420.567 123.924 419.346 120.786C418.736 119.21 418.139 117.635 417.529 116.086C417.434 115.74 417.248 115.427 416.99 115.185C416.731 114.942 416.412 114.78 416.069 114.716C415.752 114.608 415.409 114.613 415.095 114.733C414.782 114.852 414.517 115.078 414.344 115.374C414.179 115.668 414.109 116.009 414.145 116.347C414.145 116.648 414.331 117.114 414.411 117.484C414.623 118.279 414.822 119.06 415.021 119.841C415.419 121.416 415.804 122.965 416.202 124.499C416.98 127.587 417.745 130.601 418.497 133.542V133.638C418.232 139.265 417.98 144.655 417.741 149.806V149.779L405.654 190.391L402.244 201.695C401.846 202.969 401.541 203.969 401.329 204.668C401.116 205.367 400.984 205.668 400.984 205.668C400.984 205.668 401.05 205.312 401.236 204.641L402.072 201.64C402.841 198.996 403.942 195.173 405.335 190.295C408.201 180.485 412.275 166.481 417.197 149.601V149.669C417.427 144.536 417.661 139.146 417.9 133.501V133.597C417.144 130.651 416.361 127.637 415.578 124.568L414.384 119.909C414.185 119.128 413.986 118.333 413.774 117.552C413.66 117.142 413.567 116.726 413.495 116.306C413.446 115.83 413.544 115.351 413.774 114.935C414.019 114.508 414.398 114.18 414.849 114.004C415.294 113.869 415.765 113.854 416.218 113.959C416.67 114.065 417.09 114.288 417.436 114.607C417.769 114.929 418.016 115.335 418.152 115.785L419.97 120.485C421.204 123.636 422.438 126.842 423.698 130.076L423.207 129.898C425.582 128.445 427.97 126.993 430.491 125.637C431.129 125.293 431.784 124.986 432.455 124.718C432.665 124.628 432.893 124.595 433.118 124.623C433.345 124.656 433.563 124.741 433.755 124.869C434.075 125.106 434.357 125.393 434.591 125.719C435.035 126.318 435.421 126.961 435.745 127.637C435.918 127.979 436.077 128.308 436.223 128.651C436.412 129.014 436.538 129.408 436.595 129.816C436.595 130.788 436.595 131.693 436.595 132.556L436.263 132.186C437.968 132.198 439.668 132.4 441.331 132.789C441.445 132.83 441.556 132.88 441.663 132.94C441.809 133.022 441.928 133.145 442.008 133.296C442.111 133.518 442.187 133.753 442.233 133.995C442.313 134.433 442.366 134.844 442.419 135.269C442.499 136.105 442.552 136.927 442.592 137.749L442.353 137.42C442.895 137.584 443.4 137.861 443.835 138.233C444.271 138.605 444.629 139.065 444.887 139.585C445.178 140.626 445.391 141.689 445.524 142.764C445.616 143.312 445.616 143.873 445.524 144.422C445.466 144.754 445.297 145.055 445.046 145.271C444.828 145.422 444.603 145.559 444.369 145.682L441.849 147.039L442.021 146.778C441.716 149.642 441.437 152.451 441.066 155.232L440.986 155.767C440.955 155.983 440.868 156.187 440.734 156.356C440.539 156.656 440.321 156.94 440.084 157.205C439.633 157.726 439.182 158.233 438.757 158.726C437.842 159.713 436.926 160.658 435.997 161.59L436.09 161.425C433.171 174.141 430.465 185.952 428.037 196.516C426.829 201.791 425.675 206.764 424.614 211.368C424.16 213.604 423.575 215.81 422.862 217.972C422.18 219.947 421.336 221.858 420.341 223.686C418.646 226.803 416.463 229.609 413.88 231.989C411.912 233.739 409.49 234.854 406.914 235.196C405.311 235.418 403.68 235.249 402.151 234.702C401.762 234.555 401.385 234.376 401.023 234.168L400.612 233.99Z" fill="#EB996E"/>
<path d="M436.303 132.446C436.303 132.542 435.852 132.597 435.148 132.624C434.255 132.642 433.366 132.752 432.495 132.953C431.654 133.167 430.878 133.595 430.239 134.2C429.762 134.666 429.549 135.063 429.443 135.022C429.337 134.981 429.443 134.488 429.881 133.857C430.499 133.06 431.359 132.5 432.322 132.268C433.251 132.032 434.216 131.985 435.162 132.131C435.878 132.227 436.303 132.35 436.303 132.446Z" fill="#EB996E"/>
<path d="M432.455 132.597C432.282 132.529 432.269 132.104 432.455 131.652C432.64 131.2 432.906 130.885 433.078 130.953C433.251 131.022 433.277 131.446 433.078 131.899C432.879 132.351 432.587 132.666 432.455 132.597Z" fill="#EB996E"/>
<path d="M442.512 137.571C441.224 137.983 439.879 138.172 438.531 138.133C438.107 138.118 437.686 138.209 437.303 138.397C436.919 138.586 436.586 138.866 436.329 139.215C435.984 139.777 436.103 140.243 435.997 140.27C435.891 140.298 435.573 139.818 435.904 138.996C436.087 138.533 436.42 138.15 436.846 137.914C437.338 137.635 437.88 137.467 438.439 137.42C439.793 137.206 441.175 137.257 442.512 137.571V137.571Z" fill="#EB996E"/>
<path d="M441.636 142.504C441.822 142.504 441.928 143.517 441.875 144.764C441.822 146.011 441.623 146.998 441.437 146.998C441.252 146.998 441.132 145.97 441.185 144.723C441.238 143.476 441.437 142.49 441.636 142.504Z" fill="#EB996E"/>
<path d="M447.142 179.402L448.323 175.21C448.377 175.018 448.479 174.843 448.618 174.704C448.757 174.565 448.928 174.466 449.116 174.416C449.303 174.366 449.5 174.368 449.687 174.421C449.873 174.473 450.044 174.575 450.181 174.716L451.733 176.347L452.688 172.387C452.744 172.158 452.867 171.953 453.04 171.799C453.213 171.644 453.428 171.549 453.656 171.525C453.883 171.501 454.112 171.55 454.311 171.665C454.511 171.78 454.672 171.955 454.771 172.168L456.934 176.854L447.142 179.402Z" fill="white"/>
<path d="M456.96 178.648C455.476 179.389 453.9 179.915 452.277 180.21C450.707 180.74 449.071 181.035 447.421 181.087C450.475 179.82 453.686 178.999 456.96 178.648V178.648Z" fill="white"/>
<path d="M378.056 155.26C378.056 155.26 377.565 155.78 376.875 156.89C375.949 158.471 375.34 160.227 375.084 162.056C374.706 164.778 374.626 167.536 374.845 170.277C374.991 173.387 375.23 176.785 375.602 180.348C376.23 186.432 377.165 192.478 378.401 198.461C378.866 200.763 379.29 202.572 379.582 203.942C379.715 204.517 379.834 204.997 379.927 205.408C380.02 205.819 380.033 205.929 380.033 205.929C380.033 205.929 379.967 205.764 379.874 205.436C379.781 205.107 379.635 204.531 379.489 203.969C379.157 202.695 378.706 200.859 378.162 198.557C376.873 192.576 375.911 186.524 375.283 180.43C374.912 176.867 374.686 173.456 374.554 170.345C374.352 167.602 374.45 164.845 374.845 162.124C375.131 160.272 375.781 158.5 376.756 156.918C377.115 156.307 377.553 155.75 378.056 155.26V155.26Z" fill="white"/>
<path d="M405.985 136.598L405.68 136.763L404.805 137.201C404.048 137.571 402.947 138.119 401.634 138.873C398.209 140.845 394.884 142.994 391.669 145.313C387.875 148.053 384.518 150.547 382.063 152.355L379.158 154.479L378.349 155.041C378.258 155.115 378.16 155.18 378.057 155.233C378.132 155.141 378.222 155.062 378.322 155L379.092 154.397L381.944 152.191C384.372 150.341 387.716 147.765 391.51 145.08C394.73 142.751 398.08 140.619 401.541 138.695C402.868 137.968 403.982 137.448 404.765 137.105L405.654 136.722C405.919 136.626 405.919 136.585 405.985 136.598Z" fill="white"/>
<path d="M469.26 145.518C469.177 145.471 469.101 145.411 469.034 145.34L468.437 144.806C467.698 144.161 466.923 143.562 466.115 143.011C463.422 141.238 460.564 139.746 457.584 138.558C454.613 137.343 451.579 136.3 448.496 135.434C447.302 135.091 446.346 134.845 445.67 134.68L444.913 134.475C444.821 134.455 444.732 134.423 444.648 134.379H444.927L445.696 134.53C446.373 134.667 447.341 134.886 448.535 135.201C451.648 136.013 454.706 137.033 457.69 138.256C460.687 139.444 463.548 140.97 466.221 142.805C467.334 143.583 468.354 144.494 469.26 145.518V145.518Z" fill="white"/>
<path d="M406.357 250.103C406.177 250.07 406.003 250.01 405.84 249.925C405.379 249.716 404.935 249.469 404.513 249.185C403.798 248.743 403.175 248.159 402.679 247.468C402.182 246.777 401.823 245.992 401.62 245.157C401.256 243.472 401.438 241.71 402.138 240.142C402.34 239.655 402.599 239.195 402.907 238.772C403.12 238.484 403.266 238.347 403.279 238.361C402.917 238.945 402.593 239.554 402.31 240.183C401.694 241.723 401.55 243.421 401.899 245.047C402.279 246.653 403.225 248.055 404.553 248.98C405.654 249.802 406.384 250.048 406.357 250.103Z" fill="white"/>
<path d="M402.138 235.264C402.42 235.808 402.63 236.389 402.761 236.991C402.969 237.567 403.094 238.172 403.133 238.786C402.831 238.254 402.616 237.676 402.496 237.073C402.278 236.495 402.157 235.884 402.138 235.264Z" fill="white"/>
<path d="M420.076 542.471L460.543 542.265L459.813 397.78L459.428 250.802L404.592 250.076L394.734 269.258C390.701 276.97 388.13 285.406 387.158 294.113C386.495 300.772 391.324 322.421 392.996 327.902L408.082 377.31L420.076 542.471Z" fill="#263238"/>
<path d="M471.303 250.98L515.777 376.172C518.412 384.239 519.287 392.807 518.339 401.264C517.392 409.72 514.646 417.856 510.297 425.088L458.659 529.221L429.629 491.705L472.829 398.534L434.75 334.752L441.158 251.172L459.096 250.87L471.303 250.98Z" fill="#263238"/>
<path d="M455.74 292.921C455.74 292.921 455.74 293.14 455.74 293.565C455.74 293.99 455.806 294.647 455.859 295.456C455.952 297.141 456.072 299.566 456.231 302.704C456.536 309.048 456.961 318.159 457.558 329.409C458.155 340.658 458.659 354.072 459.322 369.007C459.641 376.46 459.986 384.284 460.331 392.395C460.583 396.506 460.477 400.617 460.516 404.727C460.556 408.838 460.516 413.167 460.516 417.47C460.516 451.902 460.622 483.074 460.662 505.668C460.662 516.931 460.662 526.056 460.662 532.4C460.662 535.537 460.662 537.976 460.662 539.675C460.662 540.47 460.662 541.046 460.662 541.566C460.662 542.087 460.662 542.21 460.662 542.21C460.662 542.21 460.662 541.991 460.662 541.566V539.675C460.662 537.976 460.662 535.565 460.583 532.4C460.583 526.056 460.477 516.944 460.397 505.681C460.304 483.087 460.185 451.916 460.052 417.483C460.052 413.181 460.052 408.933 460.052 404.741C460.052 400.548 460.132 396.41 459.88 392.409C459.548 384.311 459.216 376.488 458.911 369.034C458.301 354.127 457.743 340.713 457.292 329.422C456.841 318.132 456.509 309.062 456.257 302.718C456.151 299.594 456.072 297.155 456.019 295.456C456.019 294.647 456.019 294.086 456.019 293.565C456.019 293.044 455.74 292.921 455.74 292.921Z" fill="#455A64"/>
<path d="M454.718 253.446C454.873 253.887 454.967 254.348 454.997 254.816C455.143 255.693 455.302 256.968 455.488 258.557C455.833 261.722 456.204 266.12 456.416 270.985C456.629 275.849 456.642 280.261 456.576 283.453C456.576 285.042 456.483 286.344 456.416 287.235C456.43 287.697 456.376 288.159 456.257 288.605C456.09 286.893 456.032 285.172 456.085 283.453C456.085 280.261 455.939 275.876 455.726 271.012C455.514 266.148 455.222 261.777 454.997 258.68C454.808 256.943 454.715 255.195 454.718 253.446V253.446Z" fill="#455A64"/>
<path d="M445.802 256.269C445.868 256.365 445.112 256.721 444.9 257.831C444.84 258.132 444.857 258.444 444.947 258.736C445.038 259.029 445.2 259.293 445.417 259.502C445.68 259.754 446.007 259.923 446.36 259.989C446.713 260.055 447.076 260.014 447.407 259.872C447.725 259.703 447.991 259.445 448.174 259.128C448.357 258.811 448.45 258.447 448.442 258.077C448.43 257.771 448.342 257.472 448.186 257.211C448.031 256.949 447.813 256.734 447.553 256.584C447.014 256.314 446.412 256.205 445.815 256.269C445.815 256.269 445.948 256.091 446.293 255.981C446.79 255.856 447.314 255.909 447.779 256.132C448.149 256.291 448.47 256.553 448.704 256.89C448.938 257.226 449.077 257.623 449.106 258.036C449.158 258.546 449.055 259.061 448.809 259.507C448.564 259.953 448.19 260.309 447.738 260.523C447.287 260.738 446.782 260.801 446.294 260.704C445.807 260.607 445.361 260.355 445.019 259.982C444.737 259.692 444.537 259.329 444.441 258.93C444.345 258.531 444.357 258.113 444.475 257.721C444.608 257.208 444.908 256.759 445.324 256.447C445.59 256.255 445.789 256.228 445.802 256.269Z" fill="#455A64"/>
<path d="M424.574 253.789C424.769 254.221 424.891 254.685 424.932 255.159C425.146 256.389 425.186 257.644 425.052 258.886C424.861 260.735 424.344 262.532 423.526 264.189C422.538 266.249 421.075 268.028 419.266 269.368C417.457 270.708 415.357 271.569 413.15 271.875C411.384 272.148 409.585 272.078 407.843 271.67C406.665 271.406 405.53 270.967 404.473 270.368C404.074 270.173 403.707 269.914 403.385 269.601C404.852 270.282 406.381 270.81 407.949 271.177C409.836 271.582 411.784 271.579 413.67 271.167C415.556 270.756 417.339 269.945 418.906 268.786C420.473 267.628 421.791 266.146 422.775 264.435C423.76 262.724 424.391 260.82 424.627 258.845C424.783 257.163 424.765 255.468 424.574 253.789Z" fill="#455A64"/>
<path d="M476.637 265.792C475.771 265.895 474.894 265.787 474.076 265.476C472.072 264.825 470.272 263.633 468.862 262.024C467.439 260.422 466.462 258.452 466.036 256.324C465.827 255.455 465.827 254.547 466.036 253.679C466.155 253.679 466.168 254.679 466.566 256.214C467.104 258.197 468.082 260.023 469.422 261.548C470.763 263.072 472.429 264.253 474.288 264.997C475.668 265.559 476.65 265.655 476.637 265.792Z" fill="#455A64"/>
<path d="M492.439 400.754C491.774 401.537 490.978 402.191 490.09 402.685C489.159 403.296 488.143 403.758 487.079 404.056C485.739 404.422 484.325 404.384 483.005 403.946C480.688 403.044 478.702 401.415 477.327 399.287C476.695 398.488 476.173 397.603 475.774 396.657C476.491 397.363 477.139 398.138 477.711 398.972C479.12 400.902 481.023 402.387 483.204 403.261C484.318 403.568 485.48 403.638 486.621 403.466C487.761 403.294 488.856 402.884 489.838 402.261C490.676 401.707 491.545 401.204 492.439 400.754V400.754Z" fill="#455A64"/>
<path d="M482.302 408.742C480.734 407.065 479.334 405.229 478.123 403.261C476.728 401.43 475.51 399.461 474.488 397.383C476.066 399.054 477.471 400.891 478.68 402.864C480.087 404.685 481.301 406.655 482.302 408.742V408.742Z" fill="#455A64"/>
<path d="M414.318 297.758C414.132 297.826 413.667 297.045 413.256 295.99C412.845 294.935 412.672 294.045 412.845 293.962C413.017 293.88 413.495 294.675 413.893 295.73C414.291 296.785 414.49 297.758 414.318 297.758Z" fill="#FAFAFA"/>
<path d="M440.004 301.567C439.805 301.567 439.659 300.896 439.659 300.06C439.659 299.224 439.805 298.539 440.004 298.539C440.203 298.539 440.349 299.224 440.349 300.06C440.349 300.896 440.19 301.567 440.004 301.567Z" fill="#FAFAFA"/>
<path d="M429.443 315.981C429.257 315.981 429.045 315.159 428.979 314.104C428.912 313.049 428.979 312.199 429.191 312.186C429.403 312.172 429.602 313.008 429.669 314.063C429.735 315.118 429.629 315.967 429.443 315.981Z" fill="#FAFAFA"/>
<path d="M410.152 326.531C409.992 326.655 409.448 326.148 408.732 325.627C408.015 325.106 407.405 324.709 407.405 324.517C407.405 324.325 408.281 324.435 409.09 325.038C409.899 325.641 410.311 326.531 410.152 326.531Z" fill="#FAFAFA"/>
<path d="M444.157 339.973C443.998 339.863 444.157 339.274 444.608 338.603C445.059 337.931 445.471 337.548 445.63 337.657C445.789 337.767 445.63 338.37 445.179 339.027C444.728 339.685 444.316 340.082 444.157 339.973Z" fill="#FAFAFA"/>
<path d="M423.167 343.768C422.981 343.768 422.822 342.631 422.822 341.247C422.822 339.863 422.981 338.712 423.167 338.712C423.353 338.712 423.512 339.85 423.512 341.247C423.512 342.645 423.313 343.768 423.167 343.768Z" fill="#FAFAFA"/>
<path d="M416.295 359.142C416.188 359.292 415.499 358.977 414.756 358.415C414.013 357.854 413.429 357.278 413.601 357.114C413.774 356.949 414.411 357.278 415.154 357.84C415.897 358.402 416.414 358.977 416.295 359.142Z" fill="#FAFAFA"/>
<path d="M437.549 364.485C437.629 364.663 437.204 365.033 436.594 365.321C435.984 365.609 435.427 365.677 435.347 365.499C435.267 365.321 435.705 364.951 436.316 364.663C436.926 364.375 437.483 364.307 437.549 364.485Z" fill="#FAFAFA"/>
<path d="M423.167 389.56C423.008 389.642 422.318 388.587 421.641 387.189C420.965 385.792 420.553 384.586 420.726 384.449C420.898 384.312 421.588 385.422 422.252 386.819C422.915 388.217 423.287 389.409 423.167 389.56Z" fill="#FAFAFA"/>
<path d="M446.612 387.23C446.439 387.134 446.744 386.216 447.275 385.161C447.806 384.106 448.403 383.339 448.602 383.435C448.801 383.531 448.469 384.449 447.925 385.504C447.381 386.559 446.771 387.326 446.612 387.23Z" fill="#FAFAFA"/>
<path d="M436.329 408.455C436.13 408.455 436.156 407.345 435.944 406.057C435.732 404.769 435.413 403.741 435.599 403.645C435.785 403.549 436.422 404.522 436.634 405.947C436.846 407.372 436.515 408.496 436.329 408.455Z" fill="#FAFAFA"/>
<path d="M425.316 420.58C425.184 420.717 424.52 420.197 423.844 419.429C423.167 418.662 422.729 417.936 422.875 417.799C423.021 417.662 423.671 418.182 424.348 418.95C425.025 419.717 425.462 420.443 425.316 420.58Z" fill="#FAFAFA"/>
<path d="M452.038 425.184C451.905 425.047 452.396 424.307 453.139 423.526C453.882 422.745 454.572 422.238 454.718 422.375C454.864 422.512 454.36 423.266 453.63 424.033C452.9 424.801 452.184 425.321 452.038 425.184Z" fill="#FAFAFA"/>
<path d="M436.674 443.339C436.488 443.339 436.488 442.256 436.674 440.996C436.86 439.735 437.152 438.749 437.351 438.776C437.55 438.803 437.536 439.845 437.351 441.105C437.165 442.366 436.86 443.366 436.674 443.339Z" fill="#FAFAFA"/>
<path d="M426.338 452.149C426.166 452.245 425.582 451.532 425.011 450.559C424.441 449.587 424.149 448.723 424.308 448.627C424.467 448.532 425.051 449.23 425.635 450.203C426.219 451.176 426.497 452.039 426.338 452.149Z" fill="#FAFAFA"/>
<path d="M451.242 463.261C451.361 463.426 450.685 464.124 449.73 464.823C448.774 465.522 447.938 465.961 447.819 465.796C447.7 465.632 448.389 464.933 449.332 464.234C450.274 463.535 451.136 463.111 451.242 463.261Z" fill="#FAFAFA"/>
<path d="M430.491 477.689C430.305 477.621 430.491 476.525 430.663 475.154C430.836 473.784 430.73 472.661 430.929 472.633C431.128 472.606 431.473 473.757 431.34 475.223C431.207 476.689 430.663 477.771 430.491 477.689Z" fill="#FAFAFA"/>
<path d="M438.783 498.406C438.624 498.529 438.067 498.064 437.523 497.365C436.979 496.666 436.674 495.995 436.82 495.871C436.966 495.748 437.523 496.214 438.067 496.913C438.611 497.611 438.929 498.283 438.783 498.406Z" fill="#FAFAFA"/>
<path d="M429.722 512.299C429.563 512.409 428.833 511.601 428.09 510.477C427.347 509.354 426.883 508.367 427.028 508.258C427.174 508.148 427.917 508.956 428.66 510.08C429.403 511.203 429.881 512.19 429.722 512.299Z" fill="#FAFAFA"/>
<path d="M454.678 494.858C454.506 494.789 454.519 494.282 454.678 493.734C454.838 493.186 455.196 492.775 455.381 492.843C455.567 492.912 455.541 493.419 455.381 493.981C455.222 494.542 454.864 494.94 454.678 494.858Z" fill="#FAFAFA"/>
<path d="M443.666 527.947C443.493 527.851 443.825 526.878 444.09 525.659C444.356 524.439 444.449 523.412 444.648 523.398C444.847 523.384 445.046 524.494 444.767 525.81C444.488 527.125 443.825 528.057 443.666 527.947Z" fill="#FAFAFA"/>
<path d="M450.831 316.201C450.658 316.283 450.234 315.735 449.889 314.968C449.544 314.2 449.398 313.515 449.571 313.433C449.743 313.351 450.168 313.899 450.513 314.666C450.857 315.433 451.03 316.118 450.831 316.201Z" fill="#FAFAFA"/>
<path d="M432.455 273.533C432.561 273.698 431.632 274.465 430.637 275.561C429.642 276.657 428.965 277.671 428.793 277.575C428.62 277.479 429.072 276.205 430.12 275.082C431.168 273.958 432.322 273.355 432.455 273.533Z" fill="#FAFAFA"/>
<path d="M448.814 273.094C448.615 273.094 448.31 272.313 447.846 271.382C447.381 270.45 446.957 269.683 447.103 269.546C447.249 269.409 447.965 270.011 448.429 271.053C448.894 272.094 448.987 272.985 448.814 273.094Z" fill="#FAFAFA"/>
<path d="M397.733 286.947C397.56 286.865 397.733 285.961 398.144 284.919C398.555 283.878 399.006 283.07 399.192 283.152C399.378 283.234 399.192 284.125 398.781 285.18C398.369 286.235 397.958 287.016 397.733 286.947Z" fill="#FAFAFA"/>
<path d="M399.391 307.637C399.259 307.788 398.502 307.349 397.693 306.65C396.884 305.952 396.366 305.28 396.446 305.116C396.525 304.951 397.335 305.404 398.144 306.102C398.953 306.801 399.511 307.486 399.391 307.637Z" fill="#FAFAFA"/>
<path d="M432.906 257.105C432.733 257.105 432.362 256.667 432.097 255.968C431.831 255.269 431.752 254.598 431.924 254.598C432.097 254.598 432.468 255.036 432.733 255.735C432.999 256.434 433.078 257.037 432.906 257.105Z" fill="#FAFAFA"/>
<path d="M465.001 267.217C464.815 267.217 464.828 266.354 465.001 265.381C465.173 264.408 465.518 263.641 465.704 263.682C465.89 263.723 465.876 264.559 465.704 265.531C465.531 266.504 465.186 267.258 465.001 267.217Z" fill="#FAFAFA"/>
<path d="M472.537 282.878C472.365 282.796 472.603 281.782 473.081 280.59C473.559 279.398 474.076 278.507 474.249 278.575C474.421 278.644 474.249 279.672 473.718 280.864C473.187 282.056 472.723 282.946 472.537 282.878Z" fill="#FAFAFA"/>
<path d="M467.163 295.51C466.991 295.593 466.354 294.647 465.744 293.4C465.133 292.154 464.788 291.044 464.961 290.962C465.133 290.879 465.757 291.825 466.367 293.072C466.978 294.318 467.336 295.415 467.163 295.51Z" fill="#FAFAFA"/>
<path d="M478.653 308.144C478.481 308.075 478.653 307.281 478.945 306.376C479.237 305.472 479.702 304.787 479.887 304.855C480.073 304.924 479.887 305.719 479.595 306.623C479.303 307.527 478.892 308.212 478.653 308.144Z" fill="#FAFAFA"/>
<path d="M468.384 320.517C468.225 320.626 467.814 320.256 467.482 319.708C467.15 319.16 466.991 318.612 467.163 318.503C467.336 318.393 467.721 318.763 468.066 319.325C468.411 319.886 468.543 320.421 468.384 320.517Z" fill="#FAFAFA"/>
<path d="M470.573 346.056C470.441 346.18 469.605 345.508 468.729 344.522C467.854 343.535 467.257 342.645 467.402 342.508C467.548 342.371 468.371 343.056 469.247 344.042C470.122 345.029 470.719 345.919 470.573 346.056Z" fill="#FAFAFA"/>
<path d="M484.04 331.382C483.894 331.506 483.164 330.82 482.421 329.834C481.678 328.847 481.201 327.97 481.347 327.847C481.493 327.724 482.222 328.423 482.965 329.395C483.708 330.368 484.199 331.273 484.04 331.382Z" fill="#FAFAFA"/>
<path d="M491.43 351.62C491.258 351.537 491.563 350.51 492.107 349.331C492.651 348.153 493.221 347.249 493.434 347.331C493.646 347.413 493.314 348.454 492.77 349.633C492.226 350.811 491.603 351.715 491.43 351.62Z" fill="#FAFAFA"/>
<path d="M475.721 368.281C475.549 368.377 474.938 367.623 474.089 366.815C473.24 366.006 472.457 365.444 472.537 365.239C472.616 365.033 473.625 365.403 474.554 366.294C475.482 367.185 475.88 368.185 475.721 368.281Z" fill="#FAFAFA"/>
<path d="M476.703 385.449C476.703 385.641 476.04 385.805 475.23 385.805C474.421 385.805 473.771 385.641 473.771 385.449C473.771 385.257 474.421 385.093 475.23 385.093C476.04 385.093 476.703 385.257 476.703 385.449Z" fill="#FAFAFA"/>
<path d="M492.85 380.653C492.677 380.558 493.022 379.694 493.274 378.626C493.527 377.557 493.633 376.625 493.832 376.611C494.031 376.598 494.243 377.598 493.951 378.79C493.659 379.982 492.996 380.763 492.85 380.653Z" fill="#FAFAFA"/>
<path d="M508.891 386.422C508.718 386.49 508.227 385.517 507.803 384.271C507.378 383.024 507.179 381.955 507.352 381.9C507.524 381.845 508.028 382.791 508.453 384.038C508.878 385.285 509.077 386.353 508.891 386.422Z" fill="#FAFAFA"/>
<path d="M506.33 409.989C506.171 409.893 506.582 408.742 507.246 407.413C507.909 406.084 508.572 405.084 508.771 405.18C508.97 405.276 508.533 406.427 507.856 407.742C507.179 409.057 506.503 410.112 506.33 409.989Z" fill="#FAFAFA"/>
<path d="M491.696 423.814C491.523 423.882 490.979 422.937 490.475 421.69C489.971 420.443 489.719 419.374 489.905 419.292C490.09 419.21 490.621 420.169 491.112 421.416C491.603 422.663 491.868 423.814 491.696 423.814Z" fill="#FAFAFA"/>
<path d="M475.482 429.171C475.482 429.363 474.925 429.527 474.249 429.527C473.572 429.527 473.028 429.363 473.028 429.171C473.028 428.979 473.585 428.815 474.249 428.815C474.912 428.815 475.482 428.979 475.482 429.171Z" fill="#FAFAFA"/>
<path d="M484.77 451.217C484.597 451.217 484.226 450.464 483.947 449.422C483.669 448.381 483.616 447.477 483.801 447.436C483.987 447.395 484.345 448.189 484.624 449.231C484.903 450.272 484.956 451.108 484.77 451.217Z" fill="#FAFAFA"/>
<path d="M473.028 443.818C472.869 443.722 473.028 443.078 473.466 442.379C473.904 441.68 474.342 441.201 474.501 441.297C474.66 441.393 474.501 442.05 474.063 442.749C473.625 443.448 473.2 443.928 473.028 443.818Z" fill="#FAFAFA"/>
<path d="M472.789 468.084C472.603 468.084 472.338 467.166 472.205 465.974C472.072 464.782 472.112 463.809 472.298 463.782C472.484 463.754 472.749 464.7 472.882 465.892C473.014 467.084 472.975 468.057 472.789 468.084Z" fill="#FAFAFA"/>
</svg>
